<?xml version="1.0" encoding="UTF-8"?> <svg xmlns="http://www.w3.org/2000/svg" width="1494" height="380" viewBox="0 0 1494 380" fill="none"> <g clip-path="url(#clip0_1542_6)"> <path d="M571.081 8.93481L442.188 345.694H511.456L538.205 275.36H675.054L701.676 345.694H770.418L642.003 8.93481H571.081ZM561.676 213.555L606.773 95.054L651.615 213.555H561.676Z" fill="black"></path> <path d="M1371.41 104.856C1347.17 104.856 1323.48 112.042 1303.33 125.506C1283.18 138.969 1267.48 158.106 1258.21 180.494C1248.93 202.883 1246.51 227.519 1251.23 251.287C1255.96 275.055 1267.63 296.888 1284.77 314.023C1301.9 331.159 1323.73 342.829 1347.5 347.557C1371.27 352.284 1395.91 349.858 1418.3 340.584C1440.68 331.31 1459.82 315.606 1473.28 295.456C1486.75 275.307 1493.93 251.617 1493.93 227.384C1493.93 194.887 1481.02 163.722 1458.05 140.744C1435.07 117.765 1403.9 104.856 1371.41 104.856ZM1371.41 287.088C1359.6 287.088 1348.06 283.587 1338.25 277.029C1328.43 270.47 1320.78 261.148 1316.26 250.241C1311.74 239.335 1310.56 227.333 1312.87 215.755C1315.17 204.177 1320.85 193.541 1329.2 185.194C1337.55 176.846 1348.18 171.161 1359.76 168.858C1371.34 166.555 1383.34 167.737 1394.25 172.255C1405.15 176.772 1414.48 184.423 1421.04 194.238C1427.59 204.054 1431.09 215.594 1431.09 227.4C1431.11 235.241 1429.57 243.009 1426.58 250.256C1423.58 257.503 1419.19 264.088 1413.64 269.633C1408.1 275.179 1401.51 279.575 1394.26 282.57C1387.02 285.565 1379.25 287.1 1371.41 287.088Z" fill="black"></path> <path d="M852.957 258.843L797.008 109.105H730.939L820.989 345.694H886.533L974.975 109.105H908.906L852.957 258.843Z" fill="black"></path> <path d="M1182.78 46.234H1119.91V109.105H1083.15V165.595H1119.91V266.306C1119.91 323.321 1151.35 347.826 1195.57 347.826C1210.57 348.043 1225.45 345.138 1239.27 339.297V280.691C1231.75 283.463 1223.82 284.932 1215.81 285.035C1196.72 285.035 1182.78 277.572 1182.78 252V165.595H1239.27V109.105H1182.78V46.234Z" fill="black"></path> <path d="M1026.66 92.0625C1051.97 92.0625 1072.49 71.5445 1072.49 46.2341C1072.49 20.9238 1051.97 0.405762 1026.66 0.405762C1001.35 0.405762 980.83 20.9238 980.83 46.2341C980.83 71.5445 1001.35 92.0625 1026.66 92.0625Z" fill="black"></path> <path d="M1058.1 109.105H995.232V345.694H1058.1V109.105Z" fill="black"></path> <path d="M122.965 379.27C190.652 379.27 245.524 324.398 245.524 256.711C245.524 189.023 190.652 134.152 122.965 134.152C55.2778 134.152 0.40625 189.023 0.40625 256.711C0.40625 324.398 55.2778 379.27 122.965 379.27Z" fill="#04E061"></path> <path d="M335.574 363.803C376.475 363.803 409.631 330.646 409.631 289.745C409.631 248.844 376.475 215.688 335.574 215.688C294.673 215.688 261.516 248.844 261.516 289.745C261.516 330.646 294.673 363.803 335.574 363.803Z" fill="#FF4053"></path> <path d="M146.404 118.175C171.715 118.175 192.233 97.6569 192.233 72.3466C192.233 47.0363 171.715 26.5182 146.404 26.5182C121.094 26.5182 100.576 47.0363 100.576 72.3466C100.576 97.6569 121.094 118.175 146.404 118.175Z" fill="#965EEB"></path> <path d="M306.803 199.696C361.835 199.696 406.448 155.083 406.448 100.051C406.448 45.0183 361.835 0.405762 306.803 0.405762C251.77 0.405762 207.158 45.0183 207.158 100.051C207.158 155.083 251.77 199.696 306.803 199.696Z" fill="#00AAFF"></path> </g> <defs> <clipPath id="clip0_1542_6"> <rect width="1494" height="380" fill="white"></rect> </clipPath> </defs> </svg> 